:FULLY-SPECIFIED
:FORCE-ALL-JOINTS-BE-3DOF
:DEGREES
2446
root 2.47133 15.1364 -23.6889 951.135 83.4918 -127.383
lfemur -36.1439 20.9653 -14.8955
ltibia 70.6982 0 0
lfoot -22.5089 17.5551 0
ltoes -31.6214 0 0
rfemur -50.7421 -24.7316 16.2473
rtibia 63.3962 0 0
rfoot 5.94884 -1.70508 0
rtoes 0.822688 0 0
lowerback 18.1532 1.94073 -2.15252
upperback -0.0483661 2.5036 2.90771
thorax -10.4702 1.42366 3.73935
lowerneck 4.03425 -13.2539 -14.5281
upperneck -0.522911 -18.3772 14.6146
head 1.91185 -9.30657 6.16544
lclavicle 2.64624e-15 9.89976e-16 0
lhumerus -19.1949 -59.5235 105.056
lradius 90.234 0 0
lwrist 44.6085 0 0
lhand -11.6819 404.55 0
lfingers 7.12502 0 0
lthumb 14.3523 -646.125 0
rclavicle 2.64624e-15 9.89976e-16 0
rhumerus 33.8332 29.398 -58.5756
rradius 113.842 0 0
rwrist -29.3746 0 0
rhand -20.0263 -403.602 0
rfingers 7.12502 0 0
rthumb 6.31204 286.744 0
2447
root 2.54669 15.1247 -23.6959 949.121 83.2858 -129.139
lfemur -35.5219 20.9076 -14.5725
ltibia 70.7813 0 0
lfoot -22.9095 17.4051 0
ltoes -32.1564 0 0
rfemur -49.6602 -24.3371 15.2747
rtibia 61.567 0 0
rfoot 8.48306 -1.63315 0
rtoes 3.37403 0 0
lowerback 18.0831 1.77742 -2.31693
upperback -0.0949801 2.26174 2.98422
thorax -10.462 1.32084 3.9862
lowerneck 3.94629 -13.2594 -14.6153
upperneck -0.0748861 -18.4021 14.3731
head 2.04564 -9.31431 6.08179
lclavicle 1.56115e-15 1.61375e-15 0
lhumerus -20.7421 -59.7814 105.861
lradius 91.5185 0 0
lwrist 46.7206 0 0
lhand -10.3473 404.491 0
lfingers 7.12502 0 0
lthumb 15.6347 -646.323 0
rclavicle 1.56115e-15 1.61375e-15 0
rhumerus 31.1071 27.7528 -59.7107
rradius 114.804 0 0
rwrist -23.1941 0 0
rhand -22.1022 -404.152 0
rfingers 7.12502 0 0
rthumb 4.30809 286.196 0
2448
root 2.62204 15.113 -23.7028 946.681 83.006 -131.197
lfemur -34.6175 20.8995 -14.1505
ltibia 70.8835 0 0
lfoot -23.4811 17.2614 0
ltoes -32.7589 0 0
rfemur -48.3536 -23.8398 13.9774
rtibia 58.8788 0 0
rfoot 11.8838 -1.45936 0
rtoes 6.72812 0 0
lowerback 18.0028 1.54214 -2.5361
upperback -0.147581 1.91852 3.10758
thorax -10.4488 1.17475 4.34384
lowerneck 3.83507 -13.2635 -14.7364
upperneck 0.524232 -18.4321 14.0608
head 2.22454 -9.32322 5.97442
lclavicle 9.62335e-16 2.3551e-15 0
lhumerus -22.737 -60.3678 106.94
lradius 93.1748 0 0
lwrist 49.6774 0 0
lhand -8.45534 404.427 0
lfingers 7.12502 0 0
lthumb 17.4533 -646.574 0
rclavicle 9.62335e-16 2.3551e-15 0
rhumerus 27.259 25.4802 -61.3505
rradius 116.061 0 0
rwrist -14.9587 0 0
rhand -24.8785 -404.905 0
rfingers 7.12502 0 0
rthumb 1.6279 285.443 0
2449
root 2.6974 15.1012 -23.7098 943.777 82.6399 -133.569
lfemur -33.3776 20.9566 -13.6149
ltibia 71.0068 0 0
lfoot -24.2547 17.1311 0
ltoes -33.4272 0 0
rfemur -46.8023 -23.2266 12.3041
rtibia 55.1681 0 0
rfoot 16.2897 -1.15889 0
rtoes 11.0058 0 0
lowerback 17.9122 1.22159 -2.81864
upperback -0.206029 1.45564 3.28758
thorax -10.4297 0.977571 4.8329
lowerneck 3.69762 -13.2654 -14.8972
upperneck 1.2984 -18.4674 13.6679
head 2.45569 -9.33334 5.84006
lclavicle 1.02223e-15 3.22228e-15 0
lhumerus -25.2422 -61.3619 108.335
lradius 95.2553 0 0
lwrist 53.6278 0 0
lhand -5.90568 404.358 0
lfingers 7.12502 0 0
lthumb 19.9045 -646.884 0
rclavicle 1.02223e-15 3.22228e-15 0
rhumerus 22.0882 22.4727 -63.5887
rradius 117.656 0 0
rwrist -4.34565 0 0
rhand -28.4665 -405.897 0
rfingers 7.12502 0 0
rthumb -1.83579 284.449 0
2450
root 2.77276 15.0895 -23.7167 940.37 82.1755 -136.271
lfemur -31.7493 21.0944 -12.9512
ltibia 71.1532 0 0
lfoot -25.2615 17.0215 0
ltoes -34.1592 0 0
rfemur -44.9862 -22.4847 10.2038
rtibia 50.2717 0 0
rfoot 21.8394 -0.70692 0
rtoes 16.3278 0 0
lowerback 17.811 0.802471 -3.17315
upperback -0.270184 0.854819 3.53402
thorax -10.4036 0.721473 5.47403
lowerneck 3.53097 -13.2646 -15.1036
upperneck 2.27157 -18.5086 13.1844
head 2.74625 -9.34469 5.67545
lclavicle 1.91329e-15 4.22356e-15 0
lhumerus -28.3204 -62.8429 110.09
lradius 97.812 0 0
lwrist 58.7204 0 0
lhand -2.59794 404.287 0
lfingers 7.12502 0 0
lthumb 23.0851 -647.261 0
rclavicle 1.91329e-15 4.22356e-15 0
rhumerus 15.394 18.6226 -66.519
rradius 119.631 0 0
rwrist 8.96743 0 0
rhand -32.9773 -407.163 0
rfingers 7.12502 0 0
rthumb -6.19024 283.18 0
2451
root 2.84812 15.0778 -23.7237 936.422 81.6004 -139.319
lfemur -29.6798 21.3287 -12.1448
ltibia 71.3249 0 0
lfoot -26.5325 16.9401 0
ltoes -34.9531 0 0
rfemur -42.8855 -21.6011 7.62539
rtibia 44.0263 0 0
rfoot 28.6718 -0.0786081 0
rtoes 22.815 0 0
lowerback 17.6992 0.271475 -3.60824
upperback -0.339907 0.0977675 3.85666
thorax -10.3695 0.398635 6.28788
lowerneck 3.33215 -13.2605 -15.3614
upperneck 3.4677 -18.556 12.6002
head 3.10337 -9.3573 5.47734
lclavicle 3.80797e-15 5.36719e-15 0
lhumerus -32.0342 -64.8898 112.248
lradius 100.897 0 0
lwrist 65.1041 0 0
lhand 1.56824 404.214 0
lfingers 7.12502 0 0
lthumb 27.0916 -647.71 0
rclavicle 3.80797e-15 5.36719e-15 0
rhumerus 6.97597 13.8225 -70.235
rradius 122.031 0 0
rwrist 25.3031 0 0
rhand -38.522 -408.736 0
rfingers 7.12502 0 0
rthumb -11.5427 281.601 0
2452
root 2.9 15.0336 -23.7153 935.549 81.5791 -140.146
lfemur -29.4991 21.3889 -12.0657
ltibia 71.5386 0 0
lfoot -26.7838 17.0075 0
ltoes -35.2346 0 0
rfemur -42.6236 -21.5726 7.26901
rtibia 43.5583 0 0
rfoot 29.0036 0.0739719 0
rtoes 23.39 0 0
lowerback 17.6241 0.184409 -3.71966
upperback -0.378781 -0.0365243 3.88669
thorax -10.3558 0.341539 6.41991
lowerneck 3.30112 -13.2764 -15.4145
upperneck 3.61981 -18.5838 12.5219
head 3.15423 -9.36978 5.45096
lclavicle 4.11532e-15 5.4018e-15 0
lhumerus -33.172 -64.3322 112.619
lradius 101.615 0 0
lwrist 66.4059 0 0
lhand 2.32853 404.143 0
lfingers 7.12502 0 0
lthumb 27.8208 -647.871 0
rclavicle 4.11532e-15 5.4018e-15 0
rhumerus 5.86076 12.5246 -70.7294
rradius 121.678 0 0
rwrist 27.8331 0 0
rhand -39.3145 -408.911 0
rfingers 7.12502 0 0
rthumb -12.3076 281.431 0
2453
root 2.95188 14.9894 -23.707 935.089 81.5726 -140.588
lfemur -29.4123 21.4239 -12.0272
ltibia 71.6631 0 0
lfoot -26.9213 17.0497 0
ltoes -35.3861 0 0
rfemur -42.4967 -21.5664 7.08714
rtibia 43.3392 0 0
rfoot 29.1245 0.163369 0
rtoes 23.6526 0 0
lowerback 17.581 0.138007 -3.78025
upperback -0.400543 -0.108383 3.90181
thorax -10.3475 0.310965 6.48993
lowerneck 3.28522 -13.2857 -15.4425
upperneck 3.69596 -18.5995 12.4821
head 3.18008 -9.37694 5.43755
lclavicle 4.26651e-15 5.34324e-15 0
lhumerus -33.7995 -63.9874 112.812
lradius 102.002 0 0
lwrist 67.1102 0 0
lhand 2.73058 404.103 0
lfingers 7.12502 0 0
lthumb 28.2063 -647.961 0
rclavicle 4.26651e-15 5.34324e-15 0
rhumerus 5.2872 11.8045 -70.9845
rradius 121.439 0 0
rwrist 29.1403 0 0
rhand -39.7179 -408.995 0
rfingers 7.12502 0 0
rthumb -12.6971 281.35 0
2454
root 3.00376 14.9453 -23.6986 934.939 81.5825 -140.747
lfemur -29.406 21.4437 -12.0231
ltibia 71.734 0 0
lfoot -26.9788 17.0808 0
ltoes -35.4428 0 0
rfemur -42.4846 -21.5872 7.04402
rtibia 43.3398 0 0
rfoot 29.0237 0.215371 0
rtoes 23.6323 0 0
lowerback 17.5577 0.121748 -3.80458
upperback -0.410839 -0.134303 3.90487
thorax -10.3422 0.299877 6.5136
lowerneck 3.28129 -13.2912 -15.4515
upperneck 3.71008 -18.6074 12.4731
head 3.18593 -9.38076 5.43452
lclavicle 4.28723e-15 5.12568e-15 0
lhumerus -34.0733 -63.7447 112.866
lradius 102.148 0 0
lwrist 67.3837 0 0
lhand 2.86341 404.083 0
lfingers 7.12502 0 0
lthumb 28.3333 -648 0
rclavicle 4.28723e-15 5.12568e-15 0
rhumerus 5.1394 11.4795 -71.0524
rradius 121.223 0 0
rwrist 29.4932 0 0
rhand -39.811 -409.001 0
rfingers 7.12502 0 0
rthumb -12.7869 281.345 0
